<?xml version="1.0" standalone="no"?>
<!DOCTYPE svg PUBLIC "-//W3C//DTD SVG 20010904//EN"
 "http://www.w3.org/TR/2001/REC-SVG-20010904/DTD/svg10.dtd">
<svg version="1.0" xmlns="http://www.w3.org/2000/svg"
 width="128.000000pt" height="128.000000pt" viewBox="0 0 128.000000 128.000000"
 preserveAspectRatio="xMidYMid meet">

<g transform="translate(0.000000,128.000000) scale(0.100000,-0.100000)"
fill="#000000" stroke="none">
<path d="M245 1141 c-22 -10 -52 -31 -67 -47 -57 -61 -58 -72 -58 -456 0 -390
2 -400 66 -460 61 -57 72 -58 454 -58 382 0 393 1 454 58 64 60 66 70 66 462
0 392 -2 402 -66 462 -61 57 -72 58 -456 58 -322 0 -356 -2 -393 -19z m63
-387 c19 -13 24 -13 37 -1 23 23 562 23 587 0 16 -15 20 -15 36 0 26 24 88 22
102 -2 13 -25 13 -197 0 -222 -8 -14 -21 -19 -48 -19 -41 0 -62 14 -62 42 0
10 -4 18 -10 18 -5 0 -10 -8 -10 -19 0 -10 -6 -23 -13 -29 -13 -11 -534 -16
-569 -6 -12 4 -18 15 -18 35 0 16 -4 29 -10 29 -5 0 -10 -9 -10 -19 0 -11 -7
-27 -16 -35 -18 -19 -75 -21 -92 -4 -16 16 -16 220 0 236 17 17 69 15 96 -4z"/>
<path d="M210 639 l0 -110 48 3 c43 3 47 5 50 31 2 19 9 27 23 27 14 0 19 -7
19 -30 l0 -30 290 0 290 0 0 30 c0 23 4 30 20 30 16 0 20 -7 20 -31 0 -30 1
-30 48 -27 l47 3 0 105 0 105 -47 3 c-29 2 -48 -1 -48 -7 0 -6 -9 -11 -20 -11
-11 0 -20 5 -20 10 0 6 -103 10 -290 10 -187 0 -290 -4 -290 -10 0 -5 -9 -10
-19 -10 -11 0 -23 5 -26 10 -3 6 -26 10 -51 10 l-44 0 0 -111z m80 90 c0 -12
25 -39 36 -39 4 0 17 11 30 25 13 14 34 25 49 25 l25 0 0 -100 0 -100 -30 0
c-28 0 -30 2 -30 39 0 22 -4 43 -10 46 -5 3 -10 -1 -10 -9 0 -22 -37 -20 -49
2 -8 13 -10 7 -11 -30 0 -47 -1 -48 -30 -48 l-30 0 0 100 0 100 30 0 c17 0 30
-5 30 -11z m330 -14 c0 -23 -3 -25 -50 -25 l-50 0 0 -50 0 -50 50 0 c47 0 50
-2 50 -25 0 -25 -1 -25 -80 -25 l-80 0 0 100 0 100 80 0 c79 0 80 0 80 -25z
m190 0 c0 -23 -4 -25 -45 -25 -33 0 -45 -4 -45 -15 0 -11 12 -15 45 -15 l45 0
0 -60 0 -60 -75 0 c-73 0 -75 1 -75 25 0 23 4 25 45 25 33 0 45 4 45 15 0 11
-12 15 -45 15 l-45 0 0 60 0 60 75 0 c73 0 75 -1 75 -25z m115 -1 l25 -27 25
27 c14 15 35 26 50 26 l25 0 0 -100 0 -100 -30 0 c-29 0 -30 1 -30 48 -1 41
-2 45 -14 30 -7 -10 -19 -18 -26 -18 -7 0 -19 8 -26 18 -12 15 -13 11 -14 -30
0 -47 -1 -48 -30 -48 l-30 0 0 100 0 100 25 0 c15 0 36 -11 50 -26z m-285 -75
l0 -40 -47 3 c-42 3 -48 6 -51 26 -6 42 4 52 53 52 l45 0 0 -41z"/>
<path d="M550 640 c0 -17 7 -20 40 -20 33 0 40 3 40 20 0 17 -7 20 -40 20 -33
0 -40 -3 -40 -20z"/>
</g>
</svg>
