<svg xmlns="http://www.w3.org/2000/svg" width="100" height="100" viewBox="0 0 24 24" fill="none">
  <circle cx="12" cy="12" r="3" fill="#4CAF50"/>
  <path d="M19.4 13c.1-.3.1-.7.1-1s0-.7-.1-1l2.1-1.7c.2-.2.2-.5.1-.7l-2-3.5c-.1-.2-.4-.3-.6-.3l-2.5 1c-.5-.4-1-.7-1.5-.9l-.4-2.7c0-.3-.3-.5-.6-.5h-4c-.3 0-.5.2-.6.5L9 5.4c-.5.2-1 .5-1.5.9L5 5.3c-.3-.1-.5 0-.6.3l-2 3.5c-.1.2-.1.5.1.7l2.1 1.7c-.1.3-.1.7-.1 1s0 .7.1 1l-2.1 1.7c-.2.2-.2.5-.1.7l2 3.5c.1.2.4.3.6.3l2.5-1c.5.4 1 .7 1.5.9l.4 2.7c0 .3.3.5.6.5h4c.3 0 .5-.2.6-.5l.4-2.7c.5-.2 1-.5 1.5-.9l2.5 1c.3.1.5 0 .6-.3l2-3.5c.1-.2.1-.5-.1-.7l-2.1-1.7zM12 15.5c-1.9 0-3.5-1.6-3.5-3.5S10.1 8.5 12 8.5s3.5 1.6 3.5 3.5-1.6 3.5-3.5 3.5z" fill="#4CAF50"/>
</svg>
